<svg width="36" height="36" viewBox="0 0 36 36" fill="none" xmlns="http://www.w3.org/2000/svg">
<path d="M28.9888 8.66658L30.236 7.83322L30.236 7.83322L28.9888 8.66658ZM28.9888 24.3334L27.7416 23.5001L27.7416 23.5001L28.9888 24.3334ZM27.3334 25.9888L26.5001 24.7416L26.5001 24.7416L27.3334 25.9888ZM21 26.998L20.9935 25.498C20.1676 25.5016 19.5 26.1721 19.5 26.998H21ZM21 27L22.3416 27.6708C22.4458 27.4625 22.5 27.2329 22.5 27H21ZM15 27H13.5C13.5 27.2329 13.5542 27.4625 13.6584 27.6708L15 27ZM15 26.998H16.5C16.5 26.1721 15.8324 25.5016 15.0065 25.498L15 26.998ZM8.66658 25.9888L7.83322 27.236L7.83322 27.236L8.66658 25.9888ZM7.01118 24.3334L8.25839 23.5001L8.25839 23.5001L7.01118 24.3334ZM7.01118 8.66658L5.76398 7.83322L7.01118 8.66658ZM8.66658 7.01118L7.83322 5.76398L8.66658 7.01118ZM27.3334 7.01118L26.5001 8.25839L26.5001 8.25839L27.3334 7.01118ZM31.5 16.5C31.5 14.4245 31.5018 12.755 31.3659 11.419C31.2274 10.0578 30.9337 8.87744 30.236 7.83322L27.7416 9.49993C28.0551 9.96906 28.267 10.5987 28.3813 11.7226C28.4982 12.8716 28.5 14.3621 28.5 16.5H31.5ZM30.236 25.1668C30.9337 24.1226 31.2274 22.9422 31.3659 21.581C31.5018 20.245 31.5 18.5755 31.5 16.5H28.5C28.5 18.6379 28.4982 20.1284 28.3813 21.2774C28.267 22.4013 28.0551 23.0309 27.7416 23.5001L30.236 25.1668ZM28.1668 27.236C28.9857 26.6888 29.6888 25.9857 30.236 25.1668L27.7416 23.5001C27.4133 23.9914 26.9914 24.4133 26.5001 24.7416L28.1668 27.236ZM21.0065 28.4979C22.6177 28.4909 23.9645 28.4608 25.0901 28.3052C26.2397 28.1463 27.2548 27.8454 28.1668 27.236L26.5001 24.7416C26.09 25.0156 25.5567 25.2122 24.6793 25.3335C23.7778 25.4581 22.6189 25.4909 20.9935 25.498L21.0065 28.4979ZM22.5 27V26.998H19.5V27H22.5ZM20.2361 31.882L22.3416 27.6708L19.6584 26.3292L17.5528 30.5403L20.2361 31.882ZM15.7639 31.882C16.6852 33.7246 19.3148 33.7246 20.2361 31.882L17.5528 30.5403C17.737 30.1718 18.263 30.1718 18.4472 30.5403L15.7639 31.882ZM13.6584 27.6708L15.7639 31.882L18.4472 30.5403L16.3416 26.3292L13.6584 27.6708ZM13.5 26.998V27H16.5V26.998H13.5ZM7.83322 27.236C8.74521 27.8454 9.76028 28.1463 10.9099 28.3052C12.0355 28.4608 13.3823 28.4909 14.9935 28.4979L15.0065 25.498C13.3811 25.4909 12.2222 25.4581 11.3207 25.3335C10.4433 25.2122 9.90997 25.0156 9.49993 24.7416L7.83322 27.236ZM5.76398 25.1668C6.31117 25.9857 7.0143 26.6888 7.83322 27.236L9.49993 24.7416C9.00858 24.4133 8.5867 23.9914 8.25839 23.5001L5.76398 25.1668ZM4.5 16.5C4.5 18.5755 4.49819 20.245 4.6341 21.581C4.77256 22.9422 5.06626 24.1226 5.76398 25.1668L8.25839 23.5001C7.94493 23.0309 7.73303 22.4013 7.6187 21.2774C7.50181 20.1284 7.5 18.6379 7.5 16.5H4.5ZM5.76398 7.83322C5.06626 8.87744 4.77256 10.0578 4.6341 11.419C4.49819 12.755 4.5 14.4245 4.5 16.5H7.5C7.5 14.3621 7.50181 12.8716 7.6187 11.7226C7.73303 10.5987 7.94493 9.96906 8.25839 9.49993L5.76398 7.83322ZM7.83322 5.76398C7.0143 6.31117 6.31117 7.0143 5.76398 7.83322L8.25839 9.49993C8.5867 9.00858 9.00858 8.5867 9.49993 8.25839L7.83322 5.76398ZM16.5 4.5C14.4245 4.5 12.755 4.49819 11.419 4.6341C10.0578 4.77256 8.87744 5.06626 7.83322 5.76398L9.49993 8.25839C9.96906 7.94493 10.5987 7.73303 11.7226 7.6187C12.8716 7.50181 14.3621 7.5 16.5 7.5V4.5ZM19.5 4.5H16.5V7.5H19.5V4.5ZM28.1668 5.76398C27.1226 5.06626 25.9422 4.77256 24.581 4.6341C23.245 4.49819 21.5755 4.5 19.5 4.5V7.5C21.6379 7.5 23.1284 7.50181 24.2774 7.6187C25.4013 7.73303 26.0309 7.94493 26.5001 8.25839L28.1668 5.76398ZM30.236 7.83322C29.6888 7.0143 28.9857 6.31117 28.1668 5.76398L26.5001 8.25839C26.9914 8.5867 27.4133 9.00858 27.7416 9.49993L30.236 7.83322Z" fill="#2F80ED"/>
<circle cx="24" cy="16.5" r="1.5" fill="#2F80ED" stroke="#2F80ED" stroke-linecap="round"/>
<circle cx="18" cy="16.5" r="1.5" fill="#2F80ED" stroke="#2F80ED" stroke-linecap="round"/>
<circle cx="12" cy="16.5" r="1.5" fill="#2F80ED" stroke="#2F80ED" stroke-linecap="round"/>
</svg>
