<svg width="35" height="35" viewBox="0 0 35 35" fill="none" xmlns="http://www.w3.org/2000/svg">
<path d="M23.3996 7.29163C25.5542 7.29163 26.6315 7.29163 27.4054 7.78317C27.7404 7.99597 28.028 8.26941 28.2519 8.58788C28.769 9.32353 28.769 10.3476 28.769 12.3958V26.25C28.769 28.9998 28.769 30.3748 27.8703 31.229C26.9717 32.0833 25.5253 32.0833 22.6326 32.0833H13.4281C10.5353 32.0833 9.08899 32.0833 8.19034 31.229C7.29169 30.3748 7.29169 28.9998 7.29169 26.25V12.3958C7.29169 10.3476 7.29169 9.32353 7.80877 8.58788C8.03262 8.26941 8.32026 7.99597 8.65528 7.78317C9.42915 7.29163 10.5064 7.29163 12.661 7.29163" stroke="#2F80ED" stroke-width="3"/>
<path d="M13.125 7.29167C13.125 5.68084 14.4308 4.375 16.0417 4.375H18.9583C20.5692 4.375 21.875 5.68084 21.875 7.29167C21.875 8.9025 20.5692 10.2083 18.9583 10.2083H16.0417C14.4308 10.2083 13.125 8.9025 13.125 7.29167Z" stroke="#2F80ED" stroke-width="3"/>
<path d="M13.125 17.5L21.875 17.5" stroke="#2F80ED" stroke-width="2" stroke-linecap="round"/>
<path d="M13.125 23.3334L18.9583 23.3334" stroke="#2F80ED" stroke-width="2" stroke-linecap="round"/>
</svg>
