<svg width="36" height="36" viewBox="0 0 36 36" fill="none" xmlns="http://www.w3.org/2000/svg">
<path d="M4.08168 19.9445C3.55297 18.9941 3.28862 18.5188 3.28862 18C3.28862 17.4812 3.55297 17.0059 4.08168 16.0555L6.64641 11.445L9.35685 6.91864C9.9156 5.98554 10.195 5.51899 10.6443 5.25957C11.0936 5.00015 11.6374 4.99148 12.7248 4.97413L18 4.89L23.2752 4.97413C24.3626 4.99148 24.9064 5.00015 25.3557 5.25957C25.805 5.51899 26.0844 5.98554 26.6431 6.91864L29.3536 11.445L31.9183 16.0555C32.447 17.0059 32.7114 17.4812 32.7114 18C32.7114 18.5188 32.447 18.9941 31.9183 19.9445L29.3536 24.555L26.6431 29.0814C26.0844 30.0145 25.805 30.481 25.3557 30.7404C24.9064 30.9998 24.3626 31.0085 23.2752 31.0259L18 31.11L12.7248 31.0259C11.6374 31.0085 11.0936 30.9998 10.6443 30.7404C10.195 30.481 9.9156 30.0145 9.35685 29.0814L6.64641 24.555L4.08168 19.9445Z" stroke="#2F80ED" stroke-width="3"/>
<circle cx="18" cy="18" r="4.5" stroke="#2F80ED" stroke-width="3"/>
</svg>
