<svg width="36" height="36" viewBox="0 0 36 36" fill="none" xmlns="http://www.w3.org/2000/svg">
<path fill-rule="evenodd" clip-rule="evenodd" d="M18 15C19.6569 15 21 13.6569 21 12C21 10.3431 19.6569 9 18 9C16.3432 9 15 10.3431 15 12C15 13.6569 16.3432 15 18 15ZM18 18C19.868 18 21.5365 17.1464 22.637 15.808C23.027 16.4608 23.5798 17.0101 24.25 17.3971C25.2836 17.9939 26.5119 18.1556 27.6647 17.8467C28.8175 17.5378 29.8004 16.7836 30.3971 15.75C30.9939 14.7164 31.1556 13.4881 30.8467 12.3353C30.5378 11.1825 29.7836 10.1996 28.75 9.60289C27.7164 9.00615 26.4881 8.84444 25.3353 9.15333C24.7175 9.31889 24.1484 9.61235 23.6615 10.0082C22.8401 7.67352 20.6155 6 18 6C15.3845 6 13.1599 7.67352 12.3386 10.0082C12.1546 9.85862 11.958 9.72294 11.75 9.60289C10.7164 9.00615 9.48813 8.84444 8.33533 9.15333C7.18252 9.46223 6.19963 10.2164 5.6029 11.25C5.00616 12.2836 4.84445 13.5119 5.15335 14.6647C5.46224 15.8175 6.21643 16.8004 7.25001 17.3971C8.28359 17.9939 9.51189 18.1556 10.6647 17.8467C11.7958 17.5436 12.7634 16.8118 13.3631 15.808C14.4635 17.1464 16.1321 18 18 18ZM27.25 12.201C26.9055 12.002 26.4961 11.9481 26.1118 12.0511C25.7275 12.1541 25.3999 12.4055 25.201 12.75C25.0021 13.0945 24.9482 13.504 25.0511 13.8882C25.1541 14.2725 25.4055 14.6001 25.75 14.799C26.0945 14.998 26.504 15.0519 26.8882 14.9489C27.2725 14.8459 27.6001 14.5945 27.799 14.25C27.998 13.9055 28.0519 13.496 27.9489 13.1118C27.8459 12.7275 27.5945 12.3999 27.25 12.201ZM9.11178 12.0511C9.49605 11.9481 9.90549 12.002 10.25 12.201C10.5945 12.3999 10.8459 12.7275 10.9489 13.1118C11.0519 13.496 10.998 13.9055 10.799 14.25C10.6001 14.5945 10.2725 14.8459 9.88824 14.9489C9.50397 15.0519 9.09454 14.998 8.75001 14.799C8.40549 14.6001 8.15409 14.2725 8.05112 13.8882C7.94816 13.504 8.00206 13.0945 8.20097 12.75C8.39989 12.4055 8.72751 12.1541 9.11178 12.0511Z" fill="#2F80ED"/>
<path d="M25.3226 27L23.8521 27.2962L24.0946 28.5H25.3226V27ZM31.2545 25.8968L32.6951 25.4791L32.6951 25.4791L31.2545 25.8968ZM22.1714 22.0658L21.2641 20.8713L19.5293 22.189L21.3792 23.3395L22.1714 22.0658ZM30.3674 25.5H25.3226V28.5H30.3674V25.5ZM29.8138 26.3145C29.7531 26.1052 29.8093 25.8721 29.941 25.7119C30.0627 25.564 30.2265 25.5 30.3674 25.5V28.5C31.8182 28.5 33.1812 27.1554 32.6951 25.4791L29.8138 26.3145ZM25.5002 22.5C26.9282 22.5 27.8492 23.0687 28.4994 23.7974C29.1896 24.5707 29.5939 25.5561 29.8138 26.3145L32.6951 25.4791C32.4126 24.5047 31.846 23.0418 30.7377 21.7999C29.5896 20.5133 27.8846 19.5 25.5002 19.5V22.5ZM23.0787 23.2603C23.6554 22.8223 24.4231 22.5 25.5002 22.5V19.5C23.7573 19.5 22.3543 20.0432 21.2641 20.8713L23.0787 23.2603ZM21.3792 23.3395C22.9379 24.309 23.5908 25.9986 23.8521 27.2962L26.7931 26.7038C26.4661 25.0805 25.5563 22.4046 22.9636 20.7921L21.3792 23.3395Z" fill="#2F80ED"/>
<path d="M13.8287 22.0658L14.6209 23.3395L16.4709 22.189L14.736 20.8713L13.8287 22.0658ZM4.74562 25.8968L6.18628 26.3145L6.18628 26.3145L4.74562 25.8968ZM10.6775 27V28.5H11.9055L12.1479 27.2962L10.6775 27ZM10.5 22.5C11.577 22.5 12.3447 22.8223 12.9214 23.2603L14.736 20.8713C13.6458 20.0432 12.2428 19.5 10.5 19.5V22.5ZM6.18628 26.3145C6.40619 25.5561 6.81053 24.5707 7.50067 23.7974C8.15097 23.0687 9.07195 22.5 10.5 22.5V19.5C8.1155 19.5 6.41053 20.5133 5.26238 21.7999C4.15408 23.0417 3.58749 24.5047 3.30496 25.479L6.18628 26.3145ZM5.63272 25.5C5.77358 25.5 5.93735 25.564 6.05906 25.7119C6.19084 25.8721 6.24699 26.1052 6.18628 26.3145L3.30496 25.479C2.81889 27.1553 4.18192 28.5 5.63272 28.5V25.5ZM10.6775 25.5H5.63272V28.5H10.6775V25.5ZM12.1479 27.2962C12.4093 25.9986 13.0622 24.309 14.6209 23.3395L13.0365 20.792C10.4438 22.4045 9.53393 25.0805 9.20699 26.7038L12.1479 27.2962Z" fill="#2F80ED"/>
<path d="M18 21C23.7891 21 25.1097 25.4685 25.411 27.5072C25.4917 28.0536 25.0523 28.5 24.5 28.5H11.5C10.9477 28.5 10.5083 28.0536 10.589 27.5072C10.8903 25.4685 12.2109 21 18 21Z" stroke="#2F80ED" stroke-width="3" stroke-linecap="round"/>
</svg>
