<svg width="32" height="33" viewBox="0 0 32 33" fill="none" xmlns="http://www.w3.org/2000/svg">
<path d="M6 15.1366C6 12.8523 6 11.7102 6.47051 10.7063C6.94101 9.70234 7.82463 8.95905 9.59186 7.47248L11.3061 6.03045C14.5004 3.34348 16.0975 2 18 2C19.9025 2 21.4996 3.34348 24.6939 6.03045L26.4081 7.47248C28.1754 8.95905 29.059 9.70234 29.5295 10.7063C30 11.7102 30 12.8523 30 15.1366V22.2705C30 25.4428 30 27.029 28.9958 28.0145C27.9916 29 26.3753 29 23.1429 29H12.8571C9.62465 29 8.00841 29 7.00421 28.0145C6 27.029 6 25.4428 6 22.2705V15.1366Z" stroke="#2F80ED" stroke-width="3"/>
<path d="M22 29V20C22 19.4477 21.5523 19 21 19H15C14.4477 19 14 19.4477 14 20V29" stroke="#2F80ED" stroke-width="3" stroke-linecap="round" stroke-linejoin="round"/>
</svg>
