<svg width="27" height="33" viewBox="0 0 27 33" fill="none" xmlns="http://www.w3.org/2000/svg">
<path d="M13.07 31.5C19.398 31.5 24.64 26.5718 24.64 20.3571C24.64 16.3784 22.6313 12.4234 20.5047 9.31443C18.3498 6.16409 15.9175 3.65888 14.7671 2.53982C13.819 1.61761 12.321 1.61762 11.3729 2.53982C10.2225 3.65888 7.79017 6.1641 5.63532 9.31443C3.50873 12.4234 1.5 16.3784 1.5 20.3571C1.5 26.5718 6.742 31.5 13.07 31.5Z" stroke="#2F80ED" stroke-width="3"/>
<path d="M11.6071 26.1072C10.9505 26.1072 10.3003 25.9779 9.6937 25.7266C9.08707 25.4753 8.53588 25.107 8.07158 24.6427C7.60729 24.1784 7.23899 23.6272 6.98772 23.0206C6.73645 22.414 6.60712 21.7638 6.60712 21.1072" stroke="#2F80ED" stroke-width="3" stroke-linecap="round"/>
</svg>
