<svg width="36" height="36" viewBox="0 0 36 36" fill="none" xmlns="http://www.w3.org/2000/svg">
<path d="M11.2502 28.0006H6C5.44772 28.0006 5 27.5529 5 27.0006V16.2003C5 15.648 5.44771 15.2003 6 15.2003H11.2502C11.333 15.2003 11.4002 15.2675 11.4002 15.3503V27.8506C11.4002 27.9335 11.333 28.0006 11.2502 28.0006Z" stroke="#2F80ED" stroke-width="3" stroke-linecap="round"/>
<path d="M11.3994 15.2003L14.4315 10.6521C14.5411 10.4878 14.5995 10.2948 14.5995 10.0974V5C14.5995 4.44771 15.0472 4 15.5995 4H18.9996C20.1042 4 20.9996 4.89543 20.9996 6V15.2003" stroke="#2F80ED" stroke-width="3" stroke-linecap="round"/>
<path d="M17.7996 15.2003H26.7653C27.9573 15.2003 28.8847 16.2364 28.7531 17.4212L27.5975 27.8215C27.4849 28.8344 26.6288 29.6007 25.6097 29.6007H18.2138C17.9486 29.6007 17.6942 29.4953 17.5067 29.3078L16.4924 28.2935C16.3049 28.106 16.0505 28.0006 15.7853 28.0006H11.3994" stroke="#2F80ED" stroke-width="3" stroke-linecap="round"/>
</svg>
