<svg width="35" height="35" viewBox="0 0 35 35" fill="none" xmlns="http://www.w3.org/2000/svg">
<path d="M2.91669 17.5L1.74538 16.5629L0.99575 17.5L1.74538 18.437L2.91669 17.5ZM16.0417 19C16.8701 19 17.5417 18.3284 17.5417 17.5C17.5417 16.6716 16.8701 16 16.0417 16V19ZM7.57872 9.27127L1.74538 16.5629L4.08799 18.437L9.92132 11.1454L7.57872 9.27127ZM1.74538 18.437L7.57872 25.7287L9.92132 23.8546L4.08799 16.5629L1.74538 18.437ZM2.91669 19H16.0417V16H2.91669V19Z" fill="#2F80ED"/>
<path d="M14.5833 11.859V9.2218C14.5833 7.60346 14.5833 6.79429 15.0573 6.2348C15.5312 5.67531 16.3294 5.54228 17.9257 5.27623L25.0969 4.08103C28.34 3.54051 29.9616 3.27025 31.0224 4.16895C32.0833 5.06764 32.0833 6.71156 32.0833 9.99939V25.0005C32.0833 28.2884 32.0833 29.9323 31.0224 30.831C29.9616 31.7297 28.34 31.4594 25.0969 30.9189L17.9257 29.7237C16.3294 29.4576 15.5312 29.3246 15.0573 28.7651C14.5833 28.2056 14.5833 27.3965 14.5833 25.7781V23.4295" stroke="#2F80ED" stroke-width="3"/>
</svg>
