<svg width="33" height="32" viewBox="0 0 33 32" fill="none" xmlns="http://www.w3.org/2000/svg">
<path d="M15.4604 9.28393C16.5412 6.48766 17.0816 5.08953 17.9596 4.89576C18.1905 4.84481 18.4291 4.84481 18.6599 4.89576C19.5379 5.08953 20.0783 6.48766 21.1592 9.28393C21.7738 10.8741 22.0811 11.6692 22.6562 12.21C22.8175 12.3617 22.9926 12.4968 23.179 12.6134C23.8436 13.0291 24.6733 13.1062 26.3328 13.2604C29.1418 13.5215 30.5464 13.6521 30.9753 14.4831C31.0641 14.6553 31.1245 14.8416 31.154 15.0345C31.2962 15.9656 30.2636 16.9405 28.1985 18.8903L27.6251 19.4317C26.6596 20.3433 26.1769 20.7991 25.8976 21.3679C25.7301 21.7091 25.6178 22.0765 25.5652 22.4555C25.4775 23.0874 25.6189 23.7486 25.9016 25.071L26.0026 25.5434C26.5096 27.9149 26.7631 29.1007 26.4467 29.6835C26.1624 30.207 25.6388 30.5422 25.0604 30.5709C24.4165 30.6028 23.5092 29.8355 21.6946 28.3011C20.4991 27.2901 19.9013 26.7846 19.2377 26.5871C18.6313 26.4067 17.9882 26.4067 17.3818 26.5871C16.7182 26.7846 16.1205 27.2901 14.925 28.3011C13.1104 29.8355 12.2031 30.6028 11.5591 30.5709C10.9808 30.5422 10.4572 30.207 10.1729 29.6835C9.85645 29.1007 10.11 27.9149 10.617 25.5434L10.718 25.071C11.0007 23.7486 11.1421 23.0874 11.0543 22.4555C11.0017 22.0765 10.8894 21.7091 10.7219 21.3679C10.4427 20.7991 9.95996 20.3433 8.99449 19.4317L8.42103 18.8903C6.35593 16.9405 5.32338 15.9656 5.46558 15.0345C5.49503 14.8416 5.55542 14.6553 5.64426 14.4831C6.07317 13.6521 7.47771 13.5215 10.2868 13.2604C11.9462 13.1062 12.7759 13.0291 13.4406 12.6134C13.627 12.4968 13.8021 12.3617 13.9634 12.21C14.5384 11.6692 14.8457 10.8741 15.4604 9.28393Z" fill="#2F80ED" stroke="#2F80ED" stroke-width="2"/>
</svg>
