<svg width="36" height="36" viewBox="0 0 36 36" fill="none" xmlns="http://www.w3.org/2000/svg">
<path d="M22.5 30H7.7C6.57989 30 6.01984 30 5.59202 29.782C5.21569 29.5903 4.90973 29.2843 4.71799 28.908C4.5 28.4802 4.5 27.9201 4.5 26.8V9.2C4.5 8.0799 4.5 7.51984 4.71799 7.09202C4.90973 6.71569 5.21569 6.40973 5.59202 6.21799C6.01984 6 6.5799 6 7.7 6H12.1745C12.6637 6 12.9083 6 13.1385 6.05526C13.3425 6.10425 13.5376 6.18506 13.7166 6.29472C13.9184 6.4184 14.0914 6.59135 14.4373 6.93726L15.5627 8.06274C15.9086 8.40864 16.0816 8.5816 16.2834 8.70528C16.4624 8.81494 16.6575 8.89575 16.8615 8.94474C17.0917 9 17.3363 9 17.8255 9H22.3C23.4201 9 23.9802 9 24.408 9.21799C24.7843 9.40973 25.0903 9.71569 25.282 10.092C25.5 10.5198 25.5 11.0799 25.5 12.2V14.25" stroke="#2F80ED" stroke-width="3" stroke-linecap="round"/>
<path d="M8.31584 17.2805C8.56132 16.4622 8.68406 16.0531 8.92696 15.7498C9.14139 15.482 9.42108 15.2739 9.73915 15.1455C10.0995 15 10.5266 15 11.3809 15H27.1991C28.6567 15 29.3856 15 29.872 15.3041C30.2981 15.5704 30.6083 15.9873 30.7409 16.4719C30.8924 17.0252 30.683 17.7233 30.2641 19.1195L27.6842 27.7189C27.4387 28.5372 27.3159 28.9463 27.073 29.2496C26.8586 29.5174 26.5789 29.7255 26.2608 29.8539C25.9005 29.9994 25.4734 29.9994 24.6191 29.9994H6.65047C5.92163 29.9994 5.55721 29.9994 5.31398 29.8474C5.10096 29.7142 4.94587 29.5057 4.87954 29.2634C4.8038 28.9868 4.90852 28.6377 5.11796 27.9396L8.31584 17.2805Z" stroke="#2F80ED" stroke-width="3"/>
<path d="M13.5 22.5L22.5 22.5" stroke="#2F80ED" stroke-width="3" stroke-linecap="round"/>
</svg>
